HIERARCHY
ROOT Hips
{
 OFFSET 0.000000 0.000000 0.000000
 CHANNELS 6 Xposition Yposition Zposition Yrotation Xrotation Zrotation
 JOINT Chest
 {
  OFFSET 0.000000 9.585900 0.002600
  CHANNELS 3 Yrotation Xrotation Zrotation
  JOINT Chest2
  {
   OFFSET 0.000000 9.601200 -0.005300
   CHANNELS 3 Yrotation Xrotation Zrotation
   JOINT Chest3
   {
    OFFSET 0.000000 9.561800 0.000000
    CHANNELS 3 Yrotation Xrotation Zrotation
    JOINT Chest4
    {
     OFFSET 0.000000 9.552100 0.000000
     CHANNELS 3 Yrotation Xrotation Zrotation
     JOINT Neck
     {
      OFFSET 0.000000 14.453000 0.000000
      CHANNELS 3 Yrotation Xrotation Zrotation
      JOINT Head
      {
       OFFSET 0.000000 8.936500 -0.011300
       CHANNELS 3 Yrotation Xrotation Zrotation
       End Site
       {
        OFFSET 0.000000 17.073600 -0.006000
       }
      }
     }
     JOINT RightCollar
     {
      OFFSET -2.921100 9.558500 0.000000
      CHANNELS 3 Yrotation Xrotation Zrotation
      JOINT RightShoulder
      {
       OFFSET -13.519700 0.000000 0.000000
       CHANNELS 3 Yrotation Xrotation Zrotation
       JOINT RightElbow
       {
        OFFSET 0.000000 -29.696600 0.000000
        CHANNELS 3 Yrotation Xrotation Zrotation
        JOINT RightWrist
        {
         OFFSET 0.000000 -24.004700 0.000000
         CHANNELS 3 Yrotation Xrotation Zrotation
         End Site
         {
          OFFSET 0.000000 -17.728500 0.000000
         }
        }
       }
      }
     }
     JOINT LeftCollar
     {
      OFFSET 2.921100 9.558500 0.000000
      CHANNELS 3 Yrotation Xrotation Zrotation
      JOINT LeftShoulder
      {
       OFFSET 13.519700 0.000000 0.000000
       CHANNELS 3 Yrotation Xrotation Zrotation
       JOINT LeftElbow
       {
        OFFSET 0.000000 -29.696600 0.000000
        CHANNELS 3 Yrotation Xrotation Zrotation
        JOINT LeftWrist
        {
         OFFSET 0.000000 -24.004700 0.000000
         CHANNELS 3 Yrotation Xrotation Zrotation
         End Site
         {
          OFFSET 0.000000 -17.728500 0.000000
         }
        }
       }
      }
     }
    }
   }
  }
 }
 JOINT RightHip
 {
  OFFSET -7.771700 -0.012900 -0.001300
  CHANNELS 3 Yrotation Xrotation Zrotation
  JOINT RightKnee
  {
   OFFSET 0.000000 -40.869800 0.001200
   CHANNELS 3 Yrotation Xrotation Zrotation
   JOINT RightAnkle
   {
    OFFSET 0.000000 -39.717900 0.002100
    CHANNELS 3 Yrotation Xrotation Zrotation
    JOINT RightToe
    {
     OFFSET 0.000000 -4.965400 11.033500
     CHANNELS 3 Yrotation Xrotation Zrotation
     End Site
     {
      OFFSET 0.000000 -1.423100 5.872300
     }
    }
   }
  }
 }
 JOINT LeftHip
 {
  OFFSET 7.771700 -0.012900 -0.001300
  CHANNELS 3 Yrotation Xrotation Zrotation
  JOINT LeftKnee
  {
   OFFSET 0.000000 -40.869800 0.001200
   CHANNELS 3 Yrotation Xrotation Zrotation
   JOINT LeftAnkle
   {
    OFFSET 0.000000 -39.717900 0.002100
    CHANNELS 3 Yrotation Xrotation Zrotation
    JOINT LeftToe
    {
     OFFSET 0.000000 -4.965400 11.033500
     CHANNELS 3 Yrotation Xrotation Zrotation
     End Site
     {
      OFFSET 0.000000 -1.423100 5.872300
     }
    }
   }
  }
 }
}
MOTION
Frames: 12
Frame Time: 0.008333
0.000000 85.388000 0.000000 0.000000 -5.767877 0.000000 0.000000 11.653817 0.000000 0.000000 -5.885947 0.000000 0.000000 -0.000000 0.000000 0.000000 -0.000000 0.000000 0.000000 12.528835 0.000000 0.000000 0.711642 0.000000 0.000000 -0.000000 0.000000 0.000000 0.000000 -90.000000 0.000000 -2.309062 0.000000 0.000000 2.309062 0.000000 0.000000 -0.000000 0.000000 0.000000 -0.000000 90.000000 0.000000 -2.309062 0.000000 0.000000 2.309062 0.000000 0.000000 8.520406 0.000000 0.000000 1.905762 0.000000 -0.000000 -4.658285 0.000000 0.000000 -0.000000 0.000000 0.000000 8.520406 0.000000 0.000000 1.905762 0.000000 -0.000000 -4.658285 0.000000 0.000000 -0.000000 0.000000
-60.838852 61.907790 15.113672 175.331011 -50.505979 -0.999492 6.829171 28.111264 1.435788 1.157945 5.204478 0.030273 1.824524 8.170372 0.095265 5.293691 22.643322 0.962149 -6.347173 13.533275 1.066265 -12.399528 -10.284234 4.500509 7.810242 -3.031775 7.845222 24.392502 -33.957520 -21.830533 -78.061603 -39.364132 131.881004 5.113661 5.501821 24.617007 -12.627522 -2.755967 0.794131 -7.116238 -17.879641 16.880505 36.305448 -21.537300 -74.490371 25.878097 -3.334613 30.961040 0.240079 -16.818779 -3.055083 -6.302308 63.840527 -9.292101 1.162647 -7.329409 7.417863 0.011596 -0.117881 0.014945 -4.253366 -14.454259 5.369321 26.831429 75.240648 28.825555 1.154339 -9.538331 -5.734574 0.013481 0.133393 0.002929
-60.839020 61.907291 15.114236 175.332034 -50.522384 -0.998637 6.867788 28.060121 1.443320 1.163156 5.188303 0.030562 1.810525 8.201991 0.104694 5.341442 22.557960 0.949199 -6.593515 13.632971 1.180537 -12.897815 -10.061195 4.797969 7.781257 -2.943365 7.897531 24.369704 -33.994871 -21.840873 -77.956624 -39.359509 131.824447 5.085839 5.478617 24.776123 -12.668913 -2.652200 0.802029 -7.138491 -17.886160 16.881852 36.278730 -21.516485 -74.460033 25.870199 -3.337840 30.954806 0.241721 -16.805476 -3.055043 -6.308277 63.845829 -9.298676 1.162569 -7.329969 7.420119 0.013103 -0.121057 0.012418 -4.253334 -14.437945 5.364085 26.834250 75.238049 28.834307 1.151454 -9.537212 -5.741767 0.016189 0.133534 0.005724
-60.838896 61.909701 15.112601 175.334407 -50.565049 -1.000429 6.908140 28.027769 1.455915 1.168336 5.170787 0.030956 1.830451 8.149739 0.100899 5.366919 22.549902 0.964703 -6.853173 13.742896 1.296118 -13.419403 -9.816008 5.100217 7.759831 -2.843358 7.946940 24.315441 -34.006842 -21.821524 -77.872128 -39.378980 131.801241 5.049889 5.453127 24.965052 -12.692933 -2.572507 0.782955 -7.174948 -17.855916 16.901778 36.249265 -21.527193 -74.450494 25.888550 -3.335073 30.969075 0.241608 -16.762732 -3.055494 -6.297764 63.852069 -9.285927 1.156561 -7.331735 7.418452 0.016417 -0.125707 0.010876 -4.254555 -14.392742 5.359420 26.876385 75.229867 28.879743 1.134359 -9.535027 -5.747657 0.021789 0.129755 0.007295
-60.838849 61.909577 15.113305 175.334842 -50.591321 -1.003042 6.950196 27.971201 1.468267 1.173401 5.151298 0.031322 1.849764 8.091929 0.097069 5.393767 22.540991 0.980250 -7.123766 13.865175 1.413688 -13.959812 -9.544671 5.407095 7.773095 -2.790553 8.002959 24.205920 -34.020104 -21.801719 -77.764089 -39.346933 131.710815 5.015919 5.456057 25.210183 -12.737190 -2.436004 0.785026 -7.185834 -17.867924 16.909597 36.219677 -21.523637 -74.433995 25.887281 -3.335841 30.954885 0.241432 -16.737173 -3.052425 -6.287934 63.853027 -9.275796 1.153193 -7.329285 7.419124 0.019251 -0.127894 0.008932 -4.251041 -14.366072 5.358181 26.892010 75.225847 28.900156 1.128252 -9.538842 -5.749088 0.022265 0.132841 0.007534
-60.839811 61.907822 15.115563 175.333948 -50.607726 -1.001620 6.991250 27.895796 1.477128 1.177763 5.129363 0.031549 1.857179 8.059614 0.097395 5.426559 22.499777 0.985545 -7.402073 14.002033 1.532597 -14.512168 -9.243324 5.715514 7.764133 -2.698812 8.080443 24.110554 -34.053443 -21.798172 -77.584958 -39.351127 131.612621 4.972368 5.408552 25.454650 -12.783546 -2.271475 0.788869 -7.198047 -17.929809 16.905758 36.168300 -21.480319 -74.375887 25.835950 -3.353050 30.879621 0.249830 -16.721965 -3.053438 -6.286985 63.852755 -9.270326 1.149077 -7.329830 7.419591 0.019703 -0.125462 0.009229 -4.250083 -14.351682 5.352341 26.912746 75.223972 28.922827 1.128942 -9.541294 -5.748913 0.018831 0.135282 0.005962
-60.842072 61.905790 15.118248 175.337356 -50.624426 -0.998659 7.017659 27.838702 1.480756 1.190339 5.077345 0.028835 1.863536 8.023848 0.097946 5.457825 22.454732 0.991286 -7.685630 14.153675 1.651534 -15.070907 -8.912061 6.021946 7.740447 -2.564867 8.161970 24.019045 -34.098950 -21.790323 -77.390032 -39.361937 131.509057 4.927854 5.355249 25.749239 -12.837346 -2.070334 0.796653 -7.201360 -17.963375 16.901658 36.144765 -21.469429 -74.351090 25.821355 -3.360562 30.840968 0.256294 -16.705721 -3.058965 -6.285859 63.852219 -9.267010 1.147844 -7.334999 7.417787 0.017483 -0.119568 0.012955 -4.251789 -14.338066 5.340625 26.918179 75.221075 28.927283 1.136812 -9.538223 -5.745855 0.012839 0.136471 0.003639
-60.846229 61.905435 15.119721 175.347601 -50.656028 -0.991872 7.046333 27.759860 1.478618 1.193758 5.050449 0.029500 1.869449 7.984187 0.099071 5.489850 22.404835 0.998738 -7.971918 14.320566 1.770768 -15.631392 -8.550358 6.325654 7.711932 -2.401509 8.247818 23.917443 -34.163140 -21.780095 -77.166899 -39.345354 131.372385 4.883489 5.315184 26.121541 -12.886404 -1.872482 0.780490 -7.216854 -17.949351 16.918371 36.142786 -21.489281 -74.357484 25.821770 -3.363509 30.812518 0.261348 -16.673283 -3.075086 -6.284466 63.852304 -9.263783 1.142778 -7.337906 7.419898 0.027327 -0.118780 0.013133 -4.254015 -14.308339 5.319786 26.901939 75.213414 28.907722 1.142952 -9.526948 -5.740971 0.009757 0.134449 0.003019
-60.848972 61.905453 15.121349 175.356039 -50.692533 -0.994769 7.094094 27.647629 1.491992 1.188265 5.048679 0.033538 1.875504 7.940675 0.100634 5.524122 22.349950 1.007769 -8.258568 14.502618 1.890600 -16.189151 -8.158705 6.625976 7.668338 -2.202107 8.339769 23.815262 -34.250422 -21.769502 -76.890707 -39.309359 131.197101 4.825438 5.270516 26.567271 -12.935816 -1.665893 0.743081 -7.241571 -17.921519 16.953598 36.142442 -21.510768 -74.365406 25.821666 -3.362170 30.781297 0.259971 -16.635132 -3.079662 -6.277697 63.849958 -9.258397 1.145677 -7.341516 7.421164 0.021701 -0.115497 0.013497 -4.253202 -14.274954 5.310052 26.897752 75.213190 28.907363 1.144522 -9.522880 -5.741302 0.010138 0.132782 0.004552
-60.852216 61.908946 15.120413 175.371382 -50.757460 -1.000908 7.130420 27.585091 1.505420 1.191541 5.017441 0.034731 1.881462 7.894616 0.102439 5.559297 22.291773 1.017694 -8.541642 14.698695 2.009815 -16.736278 -7.739976 6.919258 7.607734 -1.966160 8.435384 23.721008 -34.363221 -21.763193 -76.549248 -39.247958 130.978845 4.746594 5.218552 27.080884 -12.998944 -1.419540 0.725054 -7.251234 -17.942765 16.964911 36.129157 -21.521430 -74.359318 25.838652 -3.359732 30.782227 0.253443 -16.565465 -3.085711 -6.272388 63.846494 -9.255526 1.147420 -7.344505 7.419539 0.017811 -0.114695 0.016661 -4.251907 -14.212230 5.295017 26.897195 75.212115 28.913480 1.142146 -9.513425 -5.741574 0.009854 0.123596 0.006053
-60.855047 61.909320 15.122403 175.377563 -50.800130 -1.005421 7.166883 27.496250 1.518384 1.193665 4.985375 0.035580 1.885639 7.847346 0.103639 5.589765 22.232571 1.025371 -8.813931 14.907196 2.126631 -17.258851 -7.298456 7.199840 7.577248 -1.747217 8.533678 23.587881 -34.460619 -21.746547 -76.131050 -39.156032 130.706043 4.650554 5.161076 27.661929 -13.051119 -1.157423 0.713429 -7.251708 -18.011653 16.960692 36.092305 -21.511897 -74.332310 25.837290 -3.369742 30.747051 0.250767 -16.521087 -3.085075 -6.271358 63.843069 -9.257155 1.150209 -7.348040 7.420229 0.016873 -0.112466 0.016949 -4.251012 -14.170924 5.289634 26.900407 75.210602 28.919421 1.138158 -9.512509 -5.742935 0.012342 0.123498 0.007921
-60.857761 61.909779 15.124679 175.380558 -50.845069 -1.009359 7.186138 27.410036 1.523832 1.192893 4.953642 0.035663 1.885149 7.800636 0.103513 5.606495 22.175712 1.027439 -9.067215 15.123527 2.237232 -17.740844 -6.844653 7.458538 7.582264 -1.532017 8.618528 23.432592 -34.562829 -21.714976 -75.634392 -39.035021 130.374539 4.541532 5.098263 28.307916 -13.069258 -0.900425 0.690101 -7.253581 -18.036026 16.963015 36.098174 -21.553798 -74.358853 25.854503 -3.371072 30.736242 0.251168 -16.476256 -3.081175 -6.278351 63.841162 -9.265583 1.151446 -7.347368 7.419805 0.019385 -0.114399 0.018973 -4.248655 -14.127030 5.286382 26.901041 75.210146 28.922568 1.133725 -9.512971 -5.743074 0.014590 0.123993 0.008805
